<svg width="20" height="19" viewBox="0 0 20 19" fill="none" xmlns="http://www.w3.org/2000/svg">
<path fill-rule="evenodd" clip-rule="evenodd" d="M7.96514 0.291337C7.76595 0.145668 7.53411 0.0510036 7.28989 0.0156165C7.04566 -0.0197706 6.79649 0.00519698 6.56414 0.0883371C5.47775 0.486318 4.46875 1.06999 3.58214 1.81334C3.3943 1.97282 3.24833 2.17586 3.157 2.40473C3.06566 2.63359 3.03172 2.88134 3.05814 3.12634C3.13314 3.87934 3.00014 4.60634 2.63814 5.23234C2.27714 5.85934 1.71314 6.33834 1.02314 6.64934C0.79749 6.74929 0.599754 6.90299 0.447222 7.09702C0.29469 7.29104 0.192005 7.51947 0.148143 7.76234C-0.0493811 8.9005 -0.0493811 10.0642 0.148143 11.2023C0.241143 11.7393 0.608143 12.1283 1.02314 12.3163C1.71314 12.6263 2.27714 13.1063 2.63914 13.7323C3.00014 14.3593 3.13314 15.0853 3.05814 15.8383C3.01314 16.2903 3.16514 16.8023 3.58214 17.1513C4.46874 17.8947 5.47774 18.4784 6.56414 18.8763C6.79634 18.9594 7.04534 18.9843 7.28939 18.9489C7.53343 18.9135 7.7651 18.8189 7.96414 18.6733C8.57914 18.2313 9.27614 17.9823 10.0001 17.9823C10.7241 17.9823 11.4201 18.2313 12.0351 18.6733C12.4051 18.9393 12.9251 19.0633 13.4361 18.8763C14.5225 18.4784 15.5315 17.8947 16.4181 17.1513C16.8351 16.8023 16.9881 16.2913 16.9421 15.8383C16.8671 15.0853 16.9991 14.3583 17.3621 13.7323C17.7231 13.1053 18.2871 12.6273 18.9771 12.3163C19.3911 12.1293 19.7591 11.7393 19.8521 11.2023C20.0496 10.0642 20.0496 8.9005 19.8521 7.76234C19.8083 7.51947 19.7056 7.29104 19.5531 7.09702C19.4005 6.90299 19.2028 6.74929 18.9771 6.64934C18.2871 6.33834 17.7231 5.85934 17.3611 5.23234C16.9991 4.60634 16.8671 3.87934 16.9421 3.12634C16.9685 2.88134 16.9345 2.63363 16.8432 2.40478C16.7518 2.17592 16.6059 1.97288 16.4181 1.81334C15.5315 1.06999 14.5225 0.486318 13.4361 0.0883371C13.2039 0.00537042 12.955 -0.0195059 12.7109 0.0158788C12.4669 0.0512635 12.2352 0.145834 12.0361 0.291337C11.4201 0.732337 10.7231 0.982337 10.0001 0.982337C9.27714 0.982337 8.58014 0.733337 7.96514 0.291337ZM7.00014 9.48234C7.00014 8.68669 7.31621 7.92363 7.87882 7.36102C8.44143 6.79841 9.20449 6.48234 10.0001 6.48234C10.7958 6.48234 11.5589 6.79841 12.1215 7.36102C12.6841 7.92363 13.0001 8.68669 13.0001 9.48234C13.0001 10.278 12.6841 11.041 12.1215 11.6037C11.5589 12.1663 10.7958 12.4823 10.0001 12.4823C9.20449 12.4823 8.44143 12.1663 7.87882 11.6037C7.31621 11.041 7.00014 10.278 7.00014 9.48234Z" fill="white"/>
</svg>
